<svg version="1.1" id="Layer_1" xmlns="http://www.w3.org/2000/svg" xmlns:xlink="http://www.w3.org/1999/xlink" x="0px" y="0px" viewBox="0 0 100.7 100.5" style="enable-background:new 0 0 100.7 100.5;" xml:space="preserve">
 <path d="M39.9,0.7c1.5-0.7,3.5-0.9,5.5-0.7c0.4,0,0.9,0.2,1.3,0.2c5.1,1.1,8.4,6,7.3,11.3l-4,20.1L39.9,0.7z M20.8,9.1
	c1.1-1.3,2.6-2.2,4.6-2.9C25.9,6,26.4,6,26.8,6c5.1-1.1,10.2,2,11.3,7.3l4.4,19.9L20.8,9.1z M6.7,24.6c0.4-1.5,1.5-3.1,3.1-4.4
	c0.4-0.4,0.7-0.7,1.1-0.9c4.2-3.1,10.2-2.2,13.3,2l12.4,16.3L6.7,24.6z M0.1,44.3c-0.2-1.8,0.2-3.5,1.1-5.3c0.2-0.4,0.4-0.7,0.7-1.1
	c2.7-4.6,8.4-6.2,12.8-3.5l17.9,10L0.1,44.3L0.1,44.3z M2,65.1c-0.9-1.5-1.3-3.3-1.3-5.3c0-0.4,0-0.9,0-1.3
	c0.4-5.3,5.1-9.1,10.4-8.6l20.4,2L2,65.1z M12.4,83.5C11.1,82.6,10,81,9.1,79c-0.2-0.4-0.2-0.9-0.4-1.3c-1.5-4.9,1.1-10.4,6-11.9
	l19.5-6.6L12.4,83.5z M29.2,95.8c-1.5-0.4-3.3-1.3-4.9-2.7c-0.2-0.2-0.7-0.7-0.9-0.9c-3.5-3.8-3.3-9.9,0.7-13.5l15-13.9L29.2,95.8z
	 M49.8,100.3c-1.5,0.4-3.5,0.2-5.5-0.4c-0.4-0.2-0.9-0.2-1.1-0.4c-4.9-2-7.1-7.7-4.9-12.4l8.2-18.8L49.8,100.3z M70.2,96.1
	c-1.3,0.9-3.1,1.6-5.3,1.8c-0.4,0-0.9,0-1.3,0c-5.3,0-9.5-4.2-9.5-9.5l-0.2-20.6L70.2,96.1z M87.2,83.9c-0.9,1.6-2.2,2.9-4,3.8
	c-0.4,0.2-0.7,0.4-1.1,0.4c-4.9,2.2-10.4,0-12.6-4.6l-8.6-18.6L87.2,83.9z M97.8,65.8c-0.2,1.8-0.9,3.5-2.2,5.1
	c-0.2,0.4-0.4,0.7-0.9,0.9c-3.5,4-9.5,4.2-13.5,0.9L65.7,59.1L97.8,65.8z M100.2,45c0.4,1.5,0.7,3.5,0,5.5c0,0.4-0.2,0.9-0.4,1.1
	c-1.6,5.1-6.9,7.7-11.9,6.2l-19.7-6.2L100.2,45z M93.8,25.1c1.1,1.3,2,2.9,2.4,5.1c0,0.4,0.2,0.9,0.2,1.3c0.7,5.3-3.1,9.9-8.4,10.4
	l-20.3,2.4L93.8,25.1z M79.9,9.6c1.6,0.7,3.1,1.8,4.2,3.5c0.2,0.4,0.4,0.7,0.7,1.1c2.7,4.4,1.1,10.4-3.3,13.1L63.7,37.7L79.9,9.6z
	 M60.9,1c1.8,0,3.5,0.4,5.3,1.6c0.4,0.2,0.7,0.4,1.1,0.7c4.2,3.1,5.3,9.1,2.2,13.3L57.6,33.3L60.9,1z">
 </path>
</svg>